<?xml version="1.0" standalone="no"?>
<!DOCTYPE svg PUBLIC "-//W3C//DTD SVG 20010904//EN"
 "http://www.w3.org/TR/2001/REC-SVG-20010904/DTD/svg10.dtd">
<svg version="1.0" xmlns="http://www.w3.org/2000/svg"
 width="120.000000pt" height="120.000000pt" viewBox="0 0 120.000000 120.000000"
 preserveAspectRatio="xMidYMid meet">
<metadata>
Created by potrace 1.14, written by Peter Selinger 2001-2017
</metadata>
<g transform="translate(0.000000,120.000000) scale(0.100000,-0.100000)"
fill="#000000" stroke="none">
<path d="M563 1176 l-28 -24 0 -191 0 -190 -21 20 c-12 11 -36 22 -55 25 -27
5 -40 1 -62 -20 -26 -24 -31 -42 -29 -97 2 -24 -3 -27 -38 -32 -23 -3 -47 -11
-55 -17 -14 -11 -57 -143 -68 -204 -19 -110 127 -350 253 -417 36 -18 63 -24
132 -26 200 -5 336 85 389 259 24 82 26 287 3 327 -26 44 -59 55 -106 36 -12
-5 -18 -2 -18 7 0 21 -52 66 -80 69 -14 2 -35 -2 -47 -9 -12 -7 -24 -12 -27
-12 -3 0 -6 106 -6 235 l0 234 -27 26 c-35 32 -74 32 -110 1z"/>
</g>
</svg>
